<?xml version="1.0" encoding="UTF-8" standalone="no"?>
<svg
   xmlns:dc="http://purl.org/dc/elements/1.1/"
   xmlns:cc="http://creativecommons.org/ns#"
   xmlns:rdf="http://www.w3.org/1999/02/22-rdf-syntax-ns#"
   xmlns:svg="http://www.w3.org/2000/svg"
   xmlns="http://www.w3.org/2000/svg"
   xml:space="preserve"
   style="enable-background:new 0 0 16 16;"
   viewBox="0 0 16 16"
   y="0px"
   x="0px"
   id="圖層_1"
   version="1.1"><metadata
   id="metadata11"><rdf:RDF><cc:Work
       rdf:about=""><dc:format>image/svg+xml</dc:format><dc:type
         rdf:resource="http://purl.org/dc/dcmitype/StillImage" /><dc:title></dc:title></cc:Work></rdf:RDF></metadata><defs
   id="defs9" />
<path
   style="fill:#bebebe;stroke-width:0.91751444;fill-opacity:1"
   id="path4"
   d="M 12.680852,9.9174238 C 10.802674,8.882041 10.981548,7.281904 10.802674,6.4347726 9.4611177,1.2578588 6.7780055,0.88135593 6.5096943,0.88135593 c -0.2683113,0 -0.5366225,0 -0.8049336,0.0941257 C 5.4364494,1.0696073 5.1681382,1.1637331 4.989264,1.3519845 4.8103899,1.5402359 4.6315157,1.7284873 4.5420787,2.0108644 4.3632045,2.1991158 4.2737674,2.481493 4.2737674,2.7638701 4.1843303,5.1170127 7.1357538,4.7405099 8.2984357,5.9641441 9.1033694,6.7171498 9.5505545,8.1290354 8.1195616,7.8466583 6.6885684,7.281904 5.0787011,7.1877783 3.647708,7.6584068 2.8427743,8.0349097 2.1272777,8.5996639 1.5906553,9.2585439 1.4117811,9.4467953 -0.19808621,11.988189 1.8589665,14.153081 c 1.6098673,1.694262 3.8457942,0.564754 4.6507278,-0.847132 0.5366224,-0.847131 0.9838078,-1.694262 1.341556,-2.353142 0.3577484,-0.376503 0.6260596,-0.65888 1.073245,-0.847132 0.3577483,-0.1882512 0.8049337,-0.2823769 1.2521187,-0.2823769 0.447186,0 0.804934,0.1882519 1.162682,0.3765029 0.357749,0.282377 0.62606,0.564754 0.894371,0.941257 0.804933,1.600137 1.341556,2.353143 2.057053,1.788388 0.626059,-0.376502 0.447185,-1.882514 -1.609868,-3.0120222 z M 15.095654,6.2465212 C 15.006216,6.0582698 14.827342,5.8700184 14.737905,5.7758927 14.559031,5.5876413 14.380156,5.5876413 14.201283,5.4935156 c -0.178875,-0.094126 -0.357748,-0.094126 -0.536623,0 -0.178874,0 -0.357748,0.094126 -0.536623,0.2823771 -0.983807,0.6588799 -0.804933,2.259017 -0.626058,2.9178969 0,0.094126 0,0.094126 0,0.094126 0,-0.1882514 0.357748,-1.0353828 1.609867,-1.4118856 0.804933,-0.2823771 1.252118,-0.5647542 0.983808,-1.1295088 z"
   />
</svg>
