<?xml version="1.0" encoding="UTF-8" standalone="no"?>
<svg
   xmlns:dc="http://purl.org/dc/elements/1.1/"
   xmlns:cc="http://creativecommons.org/ns#"
   xmlns:rdf="http://www.w3.org/1999/02/22-rdf-syntax-ns#"
   xmlns:svg="http://www.w3.org/2000/svg"
   xmlns="http://www.w3.org/2000/svg"
   height="48"
   width="48"
   xml:space="preserve"
   viewBox="0 0 38.4 38.4"
   y="0px"
   x="0px"
   id="Mac_1_"
   version="1.1"><metadata
   id="metadata37"><rdf:RDF><cc:Work
       rdf:about=""><dc:format>image/svg+xml</dc:format><dc:type
         rdf:resource="http://purl.org/dc/dcmitype/StillImage" /><dc:title></dc:title></cc:Work></rdf:RDF></metadata><defs
   id="defs35" />
<g
   transform="translate(0,16)"
   style="display:none;opacity:0.8"
   id="mac_x5F_tray_x5F_disable">
	<g
   id="g4"
   style="display:inline">
		<path
   id="path2"
   d="m 31.9,13.4 c -0.3,-0.9 -2.4,-2.6 -4.5,-1.1 -2.1,1.5 -1.8,4.9 -1.5,6.4 0,0.1 0,0.2 0,0.2 0.1,-0.4 0.7,-2.3 3.6,-3.1 1.8,-0.5 2.8,-1.1 2.4,-2.4 z m -5.3,7.8 C 22.3,19.1 22.8,15.5 22.3,13.8 19.2,2.8 13.2,2 12.5,2 10.8,2 7.9,2.7 7.7,6.2 c -0.3,4.9 6.4,4.6 8.9,6.6 1.7,1.4 2.9,4.4 -0.3,3.8 -3.8,-1.5 -8.2,-1 -10,-0.2 -3.1,1.3 -4.2,3.1 -4.5,3.4 -0.3,0.4 -4.1,5.9 0.5,10.4 3.7,3.6 8.7,1 10.6,-1.8 1.2,-1.7 2,-3.4 3,-4.9 3.7,-4.6 8.1,-1.6 9.2,0.5 1.8,3.3 3,4.9 4.6,3.8 1.6,-0.9 1.4,-4.3 -3.1,-6.6 z"
   style="clip-rule:evenodd;fill:#6d6d6d;fill-rule:evenodd" />
	</g>
</g>
<g
   transform="translate(0,16)"
   style="display:none"
   id="mac_x5F_tray_x5F_standby_x28_black_x29_">
	<g
   id="g9"
   style="display:inline">
		<path
   id="path7"
   d="m 31.9,13.4 c -0.3,-0.9 -2.4,-2.6 -4.5,-1.1 -2.1,1.5 -1.8,4.9 -1.5,6.4 0,0.1 0,0.2 0,0.2 0.1,-0.4 0.7,-2.3 3.6,-3.1 1.8,-0.5 2.8,-1.1 2.4,-2.4 z m -5.3,7.8 C 22.3,19.1 22.8,15.5 22.3,13.8 19.2,2.8 13.2,2 12.5,2 10.8,2 7.9,2.7 7.7,6.2 c -0.3,4.9 6.4,4.6 8.9,6.6 1.7,1.4 2.9,4.4 -0.3,3.8 -3.8,-1.5 -8.2,-1 -10,-0.2 -3.1,1.3 -4.2,3.1 -4.5,3.4 -0.3,0.4 -4.1,5.9 0.5,10.4 3.7,3.6 8.7,1 10.6,-1.8 1.2,-1.7 2,-3.4 3,-4.9 3.7,-4.6 8.1,-1.6 9.2,0.5 1.8,3.3 3,4.9 4.6,3.8 1.6,-0.9 1.4,-4.3 -3.1,-6.6 z"
   style="clip-rule:evenodd;fill:#191919;fill-rule:evenodd" />
	</g>
</g>
<g
   transform="translate(3.158923,2.4412454)"
   id="mac_x5F_tray_x5F_standby_x28_white_x29_">
	<g
   id="g14">
		<path
   id="path12"
   d="m 31.9,13.4 c -0.3,-0.9 -2.4,-2.6 -4.5,-1.1 -2.1,1.5 -1.8,4.9 -1.5,6.4 0,0.1 0,0.2 0,0.2 0.1,-0.4 0.7,-2.3 3.6,-3.1 1.8,-0.5 2.8,-1.1 2.4,-2.4 z m -5.3,7.8 C 22.3,19.1 22.8,15.5 22.3,13.8 19.2,2.8 13.2,2 12.5,2 10.8,2 7.9,2.7 7.7,6.2 c -0.3,4.9 6.4,4.6 8.9,6.6 1.7,1.4 2.9,4.4 -0.3,3.8 -3.8,-1.5 -8.2,-1 -10,-0.2 -3.1,1.3 -4.2,3.1 -4.5,3.4 -0.3,0.4 -4.1,5.9 0.5,10.4 3.7,3.6 8.7,1 10.6,-1.8 1.2,-1.7 2,-3.4 3,-4.9 3.7,-4.6 8.1,-1.6 9.2,0.5 1.8,3.3 3,4.9 4.6,3.8 1.6,-0.9 1.4,-4.3 -3.1,-6.6 z"
   style="clip-rule:evenodd;fill:#ffffff;fill-rule:evenodd" />
	</g>
</g>
<g
   transform="translate(0,16)"
   style="display:none"
   id="mac_x5F_tray_x5F_connected">
	<g
   id="g24"
   style="display:inline">
		<linearGradient
   y2="31.430099"
   x2="16"
   y1="2.9482999"
   x1="16"
   gradientUnits="userSpaceOnUse"
   id="SVGID_1_">
			<stop
   id="stop17"
   style="stop-color:#ABD70B"
   offset="0" />
			<stop
   id="stop19"
   style="stop-color:#74B707"
   offset="1" />
		</linearGradient>
		<path
   id="path22"
   d="m 31.9,13.4 c -0.3,-0.9 -2.4,-2.6 -4.5,-1.1 -2.1,1.5 -1.8,4.9 -1.5,6.4 0,0.1 0,0.2 0,0.2 0.1,-0.4 0.7,-2.3 3.6,-3.1 1.8,-0.5 2.8,-1.1 2.4,-2.4 z m -5.3,7.8 C 22.3,19.1 22.8,15.5 22.3,13.8 19.2,2.8 13.2,2 12.5,2 10.8,2 7.9,2.7 7.7,6.2 c -0.3,4.9 6.4,4.6 8.9,6.6 1.7,1.4 2.9,4.4 -0.3,3.8 -3.8,-1.5 -8.2,-1 -10,-0.2 -3.1,1.3 -4.2,3.1 -4.5,3.4 -0.3,0.4 -4.1,5.9 0.5,10.4 3.7,3.6 8.7,1 10.6,-1.8 1.2,-1.7 2,-3.4 3,-4.9 3.7,-4.6 8.1,-1.6 9.2,0.5 1.8,3.3 3,4.9 4.6,3.8 1.6,-0.9 1.4,-4.3 -3.1,-6.6 z"
   style="clip-rule:evenodd;fill:url(#SVGID_1_);fill-rule:evenodd" />
	</g>
</g>
<g
   transform="translate(0,16)"
   style="display:none"
   id="mac_x5F_tray_x5F_standby">
	<g
   id="g29"
   style="display:inline">
		<path
   id="path27"
   d="m 31.9,13.4 c -0.3,-0.9 -2.4,-2.6 -4.5,-1.1 -2.1,1.5 -1.8,4.9 -1.5,6.4 0,0.1 0,0.2 0,0.2 0.1,-0.4 0.7,-2.3 3.6,-3.1 1.8,-0.5 2.8,-1.1 2.4,-2.4 z m -5.3,7.8 C 22.3,19.1 22.8,15.5 22.3,13.8 19.2,2.8 13.2,2 12.5,2 10.8,2 7.9,2.7 7.7,6.2 c -0.3,4.9 6.4,4.6 8.9,6.6 1.7,1.4 2.9,4.4 -0.3,3.8 -3.8,-1.5 -8.2,-1 -10,-0.2 -3.1,1.3 -4.2,3.1 -4.5,3.4 -0.3,0.4 -4.1,5.9 0.5,10.4 3.7,3.6 8.7,1 10.6,-1.8 1.2,-1.7 2,-3.4 3,-4.9 3.7,-4.6 8.1,-1.6 9.2,0.5 1.8,3.3 3,4.9 4.6,3.8 1.6,-0.9 1.4,-4.3 -3.1,-6.6 z"
   style="clip-rule:evenodd;fill:#50a6ff;fill-rule:evenodd" />
	</g>
</g>
</svg>